<?xml version="1.0" standalone="no"?>
<!DOCTYPE svg PUBLIC "-//W3C//DTD SVG 1.1//EN" "http://www.w3.org/Graphics/SVG/1.1/DTD/svg11.dtd" >
<svg xmlns="http://www.w3.org/2000/svg" xmlns:xlink="http://www.w3.org/1999/xlink" version="1.1">
<metadata>
Created by FontForge 20200306 at Thu Sep 29 05:50:50 2022
 By convertio
</metadata>
<defs>
<font id="NIKEARegular" horiz-adv-x="903" >
  <font-face 
    font-family="NIKEA"
    font-weight="400"
    font-stretch="normal"
    units-per-em="1000"
    panose-1="0 0 0 0 0 0 0 0 0 0"
    ascent="800"
    descent="-200"
    x-height="700"
    cap-height="700"
    bbox="4 -331 1433 786"
    underline-thickness="0"
    underline-position="0"
    unicode-range="U+000A-221A"
  />
<missing-glyph horiz-adv-x="527" 
d="M50 700h427v-700h-427v700zM78 680l185 -309l186 309h-371zM251 350l-180 300v-601zM264 329l-185 -308h370zM276 350l181 -303v605z" />
    <glyph glyph-name=".notdef" horiz-adv-x="527" 
d="M50 700h427v-700h-427v700zM78 680l185 -309l186 309h-371zM251 350l-180 300v-601zM264 329l-185 -308h370zM276 350l181 -303v605z" />
    <glyph glyph-name=".null" horiz-adv-x="0" 
 />
    <glyph glyph-name=".null" horiz-adv-x="0" 
 />
    <glyph glyph-name="nonmarkingreturn" horiz-adv-x="333" 
 />
    <glyph glyph-name="controlLF" unicode="&#xa;" horiz-adv-x="0" 
 />
    <glyph glyph-name="controlCR" unicode="&#xd;" horiz-adv-x="0" 
 />
    <glyph glyph-name="space" unicode=" " horiz-adv-x="503" 
 />
    <glyph glyph-name="exclam" unicode="!" horiz-adv-x="277" 
d="M179 137h-80l-26 628h131zM187 0h-97v97h97v-97z" />
    <glyph glyph-name="quotedbl" unicode="&#x22;" horiz-adv-x="375" 
d="M57 596l-15 170h131l-16 -170h-100zM202 766h130l-15 -170h-100z" />
    <glyph glyph-name="quotedbl" unicode="&#x201d;" horiz-adv-x="375" 
d="M57 596l-15 170h131l-16 -170h-100zM202 766h130l-15 -170h-100z" />
    <glyph glyph-name="quotedbl" unicode="&#x201c;" horiz-adv-x="375" 
d="M57 596l-15 170h131l-16 -170h-100zM202 766h130l-15 -170h-100z" />
    <glyph glyph-name="numbersign" unicode="#" horiz-adv-x="1157" 
d="M1017 389h-206l-28 -53h207l-82 -168h-211l-86 -167h-189l86 167h-118l-86 -167h-189l86 167h-144l83 168h148l27 53h-149l83 168h153l73 144h189l-73 -144h117l74 144h189l-74 -144h202zM594 336l28 53h-118l-27 -53h117z" />
    <glyph glyph-name="dollar" unicode="$" 
d="M835 222q0 -82 -82 -140.5t-217 -74.5v-50h-168v48q-147 14 -234 76q-28 20 -47 44l132 104q4 -5 12 -11q45 -32 137 -44v111q-95 14 -149 32q-150 52 -150 176v4q0 81 82.5 140t216.5 75v53h168v-51q163 -16 249 -88l-107 -129q-43 35 -142 48v-113q94 -14 149 -32
q150 -52 150 -178zM238 493q22 -20 130 -38v87q-49 -8 -83.5 -22.5t-46.5 -26.5zM536 177q48 7 82 21t46 27q-22 20 -128 37v-85z" />
    <glyph glyph-name="percent" unicode="%" horiz-adv-x="1172" 
d="M757 700h160l-502 -700h-161zM482 425q0 -69 -60.5 -116.5t-149 -47.5t-149 47.5t-60.5 116.5t60.5 116.5t149 47.5t149 -47.5t60.5 -116.5zM194 425q0 -5 8.5 -12.5t27.5 -14t42.5 -6.5t42.5 6.5t27.5 14t8.5 12.5t-8.5 12.5t-27.5 14t-42.5 6.5t-42.5 -6.5t-27.5 -14
t-8.5 -12.5zM899 446q88 0 148.5 -47.5t60.5 -116.5t-60.5 -116.5t-148.5 -47.5t-148.5 47.5t-60.5 116.5t60.5 116.5t148.5 47.5zM899 249q23 0 42.5 6.5t28 14t8.5 12.5t-8.5 12.5t-28 14t-42.5 6.5t-42.5 -6.5t-28 -14t-8.5 -12.5t8.5 -12.5t28 -14t42.5 -6.5z" />
    <glyph glyph-name="ampersand" unicode="&#x26;" horiz-adv-x="1052" 
d="M832 234l140 -79l-84 -146l-176 100q-43 -38 -81 -59q-99 -57 -235 -57q-70 0 -133 17q-23 7 -38.5 11.5t-44 17.5t-46.5 27.5t-34 39t-19 52.5q-10 98 140 188q-35 32 -47.5 79t1.5 100q19 77 79.5 125t136 48t136 -48t79.5 -125q12 -47 3.5 -89.5t-35.5 -74.5l104 -48
q42 47 80 99l135 -100q-29 -40 -61 -78zM348 505q-13 -19 -12 -35l31 -14q29 -14 57 2l21 11q2 17 -11 36q-18 25 -43.5 25t-42.5 -25zM515 181q8 2 8 10t-7 11l-63 29q-50 23 -97 -3q-29 -15 -52 -29q-9 -5 -7.5 -14.5t10.5 -12.5h1q49 -13 105 -10.5t102 19.5z" />
    <glyph glyph-name="quotesingle" unicode="'" horiz-adv-x="215" 
d="M42 766h131l-16 -170h-100z" />
    <glyph glyph-name="quotesingle" unicode="&#x2019;" horiz-adv-x="215" 
d="M42 766h131l-16 -170h-100z" />
    <glyph glyph-name="quotesingle" unicode="&#x2018;" horiz-adv-x="215" 
d="M42 766h131l-16 -170h-100z" />
    <glyph glyph-name="parenleft" unicode="(" horiz-adv-x="409" 
d="M356 689q-150 -222 -150 -473t150 -474l-108 -73q-174 257 -174 547t174 547z" />
    <glyph glyph-name="parenright" unicode=")" horiz-adv-x="409" 
d="M160 763q174 -257 174 -547t-174 -547l-108 73q151 223 151 474t-151 473z" />
    <glyph glyph-name="asterisk" unicode="*" horiz-adv-x="432" 
d="M378 655l-43 -21l39 -18l-44 -93l-62 30v-50h-103v49l-65 -31l-45 92l43 21l-39 18l44 93l62 -29v49h103v-49l65 31z" />
    <glyph glyph-name="plus" unicode="+" horiz-adv-x="598" 
d="M535 369v-131h-171v-171h-131v171h-171v131h171v171h131v-171h171z" />
    <glyph glyph-name="hyphen" unicode="-" horiz-adv-x="377" 
d="M324 238h-272v131h272v-131z" />
    <glyph glyph-name="period" unicode="." horiz-adv-x="196" 
d="M146 0h-97v97h97v-97z" />
    <glyph glyph-name="slash" unicode="/" horiz-adv-x="557" 
d="M390 765h142l-335 -765h-143z" />
    <glyph glyph-name="zero" unicode="0" horiz-adv-x="942" 
d="M470.5 607q111.5 0 204.5 -40.5t146.5 -111t53.5 -155.5t-53.5 -155.5t-146.5 -111.5t-204.5 -41t-204 41t-146 111.5t-53.5 155.5t53.5 155.5t146 111t204 40.5zM471 160q100 0 168 43.5t68 96t-68 96t-168 43.5t-168 -43.5t-68 -96t68 -96t168 -43.5z" />
    <glyph glyph-name="one" unicode="1" horiz-adv-x="460" 
d="M220 607h162v-607h-168v430q-77 -17 -155 -7l22 167q70 -9 139 17z" />
    <glyph glyph-name="two" unicode="2" horiz-adv-x="662" 
d="M420 165h169v-165h-520v124l312 216q49 51 36 78q-8 15 -32 24.5t-53 6.5q-75 -9 -96 -98l-164 36q22 96 86 155.5t155 70.5q81 9 152 -25t102 -97q10 -20 15 -43.5t4 -59.5t-23.5 -80.5t-66.5 -88.5l-5 -5z" />
    <glyph glyph-name="three" unicode="3" horiz-adv-x="692" 
d="M492 358q61 -25 95.5 -68t34.5 -95q0 -85 -84.5 -140t-214.5 -55h-247v168h247q75 0 120 27q-44 26 -118 26l-249 -9v142l194 88h-194v168h335q65 0 112.5 -27.5t61.5 -72.5q10 -33 -1.5 -69t-50.5 -62l-6 -4z" />
    <glyph glyph-name="four" unicode="4" horiz-adv-x="727" 
d="M589 298h70v-168h-70v-130h-168v130h-354v205l347 272h175v-309zM421 298v100l-128 -100h128z" />
    <glyph glyph-name="five" unicode="5" horiz-adv-x="763" 
d="M401 381q127 0 212.5 -56.5t85.5 -140.5t-85.5 -140.5t-212.5 -56.5h-331v168h331q78 0 121 29q-43 29 -121 29h-316l74 393h417v-168h-277l-11 -57h113z" />
    <glyph glyph-name="six" unicode="6" horiz-adv-x="878" 
d="M768 297q48 -54 42 -120q-7 -85 -97.5 -139t-224.5 -54h-2h-1.5h-1.5h-2h-13q-120 4 -206 51q-77 37 -126 92q-77 86 -68 191q7 86 70.5 155.5t167 107.5t223.5 34q134 -5 241 -61l-79 -149q-72 38 -168 42q-89 3 -162.5 -25.5t-105.5 -71.5q97 55 239 50
q88 -3 160.5 -30.5t113.5 -72.5zM486 152q54 0 94 11.5t57 25.5q-17 15 -55 28t-94 15q-58 2 -101.5 -10t-62.5 -27q6 -5 14 -10q66 -30 148 -33z" />
    <glyph glyph-name="seven" unicode="7" horiz-adv-x="779" 
d="M60 608h667l-293 -609h-186l212 441h-400v168z" />
    <glyph glyph-name="eight" unicode="8" horiz-adv-x="912" 
d="M763 317q81 -51 81 -127q0 -50 -33 -88.5t-89 -62t-124 -35.5t-142.5 -12t-142 12t-123.5 35.5t-89 62t-33 88.5q0 76 80 127q-42 45 -42 101q0 87 97.5 142t252.5 55t252.5 -55t97.5 -142q0 -56 -43 -101zM291 418q63 -31 165 -31t165 31q-63 31 -165 31t-165 -31z
M456 159q116 0 192 31q-76 30 -192 30t-193 -30q77 -31 193 -31z" />
    <glyph glyph-name="nine" unicode="9" horiz-adv-x="877" 
d="M743 473q76 -85 67 -188q-7 -83 -67 -150t-158 -105.5t-214 -38.5q-11 0 -22 1q-134 4 -240 59l77 150q73 -38 169 -41q88 -3 160.5 24t106.5 68q-89 -49 -218 -49h-20q-88 3 -161 30.5t-113 72.5q-48 54 -42 118q7 85 98.5 138.5t226.5 52.5h2h2h13q119 -4 205 -50
q79 -37 128 -92zM389 371q57 -2 100 9.5t63 25.5q-5 5 -13 9q-66 29 -147 32q-53 1 -92.5 -10.5t-57.5 -24.5q18 -14 56 -26.5t91 -14.5z" />
    <glyph glyph-name="colon" unicode=":" horiz-adv-x="214" 
d="M155 388h-97v97h97v-97zM155 141h-97v98h97v-98z" />
    <glyph glyph-name="semicolon" unicode=";" horiz-adv-x="220" 
d="M158 388h-97v97h97v-97zM61 141v98h97v-98l-26 -55h-30l15 55h-56z" />
    <glyph glyph-name="equal" unicode="=" horiz-adv-x="674" 
d="M612 334h-550v130h550v-130zM612 142h-550v130h550v-130z" />
    <glyph glyph-name="question" unicode="?" horiz-adv-x="869" 
d="M766 619q52 -76 35 -149q-6 -26 -22.5 -51t-34 -42t-49 -38t-51 -32t-57.5 -32q-40 -21 -62.5 -33.5t-49.5 -33t-35 -35.5h-134q1 11 3 21q7 27 23.5 52t34 42.5t49 38.5t51.5 32t58 32q31 16 48.5 26t43.5 26.5t40 30.5t17 27q4 15 -16 43l-3 5q-35 50 -129 70t-201 -8
q-63 -19 -99 -50t-41 -61l-129 19q11 72 73 130t159 87q137 41 274.5 8.5t199.5 -120.5zM429 0h-111v97h111v-97z" />
    <glyph glyph-name="at" unicode="@" horiz-adv-x="1326" 
d="M1178 589q90 -98 79 -219q-7 -68 -29 -112q-27 -55 -85.5 -84t-128.5 -23q-94 7 -142 65q-19 22 -27 51q-41 -37 -107.5 -56t-136.5 -19q-78 0 -140.5 21.5t-96.5 60.5q-41 46 -34 104q7 54 53.5 93.5t109.5 56.5t132 17q70 0 129 -18.5t95 -50.5l2 43l161 -6
q-57 39 -141 61.5t-180 22.5q-93 0 -177.5 -20.5t-143 -53t-95 -72.5t-39.5 -81q-5 -46 35 -90q51 -56 148.5 -88.5t214.5 -32.5q104 0 199 26l44 -162q-116 -32 -243 -32q-153 0 -282.5 46.5t-204.5 129.5q-90 99 -79 219q10 105 95.5 192t225 137t302.5 50
q153 0 282.5 -46.5t204.5 -129.5zM601 350q67 0 115 22q-38 14 -91 14q-67 0 -115 -22q38 -14 91 -14zM1089 386q5 46 -35 90q-15 17 -35 32q-2 -43 -4 -87.5t-3 -66t-1 -33.5q7 -2 16 -3q15 -1 27.5 2.5t17.5 7t6 5.5q8 16 11 53z" />
    <glyph glyph-name="A" unicode="A" horiz-adv-x="1071" 
d="M609 704l451 -704h-199l-102 159h-448l-101 -159h-200l452 704h147zM419 327h232l-116 180z" />
    <glyph glyph-name="A" unicode="&#xc5;" horiz-adv-x="1071" 
d="M609 704l451 -704h-199l-102 159h-448l-101 -159h-200l452 704h147zM419 327h232l-116 180z" />
    <glyph glyph-name="A" unicode="&#xc4;" horiz-adv-x="1071" 
d="M609 704l451 -704h-199l-102 159h-448l-101 -159h-200l452 704h147zM419 327h232l-116 180z" />
    <glyph glyph-name="A" unicode="&#xc3;" horiz-adv-x="1071" 
d="M609 704l451 -704h-199l-102 159h-448l-101 -159h-200l452 704h147zM419 327h232l-116 180z" />
    <glyph glyph-name="A" unicode="&#xc2;" horiz-adv-x="1071" 
d="M609 704l451 -704h-199l-102 159h-448l-101 -159h-200l452 704h147zM419 327h232l-116 180z" />
    <glyph glyph-name="A" unicode="&#xc1;" horiz-adv-x="1071" 
d="M609 704l451 -704h-199l-102 159h-448l-101 -159h-200l452 704h147zM419 327h232l-116 180z" />
    <glyph glyph-name="A" unicode="&#xc0;" horiz-adv-x="1071" 
d="M609 704l451 -704h-199l-102 159h-448l-101 -159h-200l452 704h147zM419 327h232l-116 180z" />
    <glyph glyph-name="B" unicode="B" horiz-adv-x="936" 
d="M817 350q61 -58 61 -133q0 -93 -88.5 -155.5t-221.5 -62.5h-488v702h488q133 0 221.5 -62.5t88.5 -155.5q0 -76 -61 -133zM248 532v-98h320q41 0 74.5 10t49 20.5t18.5 18.5q-3 8 -18.5 18.5t-49 20.5t-74.5 10h-320zM568 167q41 0 74.5 10t49 21t18.5 19q-3 7 -18.5 18
t-49 21t-74.5 10h-320v-99h320z" />
    <glyph glyph-name="C" unicode="C" horiz-adv-x="970" 
d="M827 261l123 -115q-69 -73 -178.5 -114t-234.5 -41q-137 0 -251.5 46.5t-180 128.5t-65.5 180t65.5 179.5t180 128.5t251.5 47q181 0 318 -81l-85 -145q-98 58 -233 58q-139 0 -234 -58.5t-95 -128.5t95 -128.5t234 -58.5q90 0 168 27.5t122 74.5z" />
    <glyph glyph-name="C" unicode="&#xc7;" horiz-adv-x="970" 
d="M827 261l123 -115q-69 -73 -178.5 -114t-234.5 -41q-137 0 -251.5 46.5t-180 128.5t-65.5 180t65.5 179.5t180 128.5t251.5 47q181 0 318 -81l-85 -145q-98 58 -233 58q-139 0 -234 -58.5t-95 -128.5t95 -128.5t234 -58.5q90 0 168 27.5t122 74.5z" />
    <glyph glyph-name="D" unicode="D" 
d="M369 700q136 0 249.5 -47t178.5 -128t65 -178.5t-65 -179t-178.5 -128t-249.5 -46.5h-289v707h289zM369 161q137 0 231 58t94 127.5t-94 127.5t-231 58h-121v-371h121z" />
    <glyph glyph-name="E" unicode="E" horiz-adv-x="831" 
d="M767 532h-519v-99h474v-168h-474v-100h519v-168h-687v703h687v-168z" />
    <glyph glyph-name="E" unicode="&#xcb;" horiz-adv-x="831" 
d="M767 532h-519v-99h474v-168h-474v-100h519v-168h-687v703h687v-168z" />
    <glyph glyph-name="E" unicode="&#xca;" horiz-adv-x="831" 
d="M767 532h-519v-99h474v-168h-474v-100h519v-168h-687v703h687v-168z" />
    <glyph glyph-name="E" unicode="&#xc9;" horiz-adv-x="831" 
d="M767 532h-519v-99h474v-168h-474v-100h519v-168h-687v703h687v-168z" />
    <glyph glyph-name="E" unicode="&#xc8;" horiz-adv-x="831" 
d="M767 532h-519v-99h474v-168h-474v-100h519v-168h-687v703h687v-168z" />
    <glyph glyph-name="F" unicode="F" horiz-adv-x="809" 
d="M767 532h-519v-99h474v-168h-474v-269h-168v704h687v-168z" />
    <glyph glyph-name="G" unicode="G" horiz-adv-x="986" 
d="M447 424h493v-146q0 -71 -43 -131.5t-119 -97.5l-2 -1q-118 -57 -259 -57q-132 0 -241 47t-172 128.5t-63 179.5t63 179.5t172 128.5t241 47q98 0 188.5 -29t156.5 -81l-104 -131q-45 35 -108 54.5t-133 19.5q-82 0 -153 -25.5t-113 -69t-42 -93.5t42 -93.5t113 -69
t153 -25.5q103 0 186 40l1 1q49 23 63 58h-320v167z" />
    <glyph glyph-name="H" unicode="H" horiz-adv-x="1071" 
d="M824 700h168v-700h-168v265h-577v-265h-168v700h168v-267h577v267z" />
    <glyph glyph-name="I" unicode="I" horiz-adv-x="327" 
d="M247 0h-168v700h168v-700z" />
    <glyph glyph-name="I" unicode="&#xcf;" horiz-adv-x="327" 
d="M247 0h-168v700h168v-700z" />
    <glyph glyph-name="I" unicode="&#xce;" horiz-adv-x="327" 
d="M247 0h-168v700h168v-700z" />
    <glyph glyph-name="I" unicode="&#xcd;" horiz-adv-x="327" 
d="M247 0h-168v700h168v-700z" />
    <glyph glyph-name="I" unicode="&#xcc;" horiz-adv-x="327" 
d="M247 0h-168v700h168v-700z" />
    <glyph glyph-name="J" unicode="J" horiz-adv-x="871" 
d="M638 700h168v-390q0 -88 -56 -161.5t-154 -115.5t-216 -42q-113 0 -209.5 40.5t-154.5 111.5l131 106q33 -41 96.5 -65.5t136.5 -24.5q109 0 183.5 47t74.5 104v390z" />
    <glyph glyph-name="K" unicode="K" horiz-adv-x="997" 
d="M989 700l-475 -316l438 -385h-255l-328 289l-121 -81v-207h-168v700h168v-291l437 291h304z" />
    <glyph glyph-name="L" unicode="L" horiz-adv-x="873" 
d="M248 168h600v-168h-768v700h168v-532z" />
    <glyph glyph-name="M" unicode="M" horiz-adv-x="1325" 
d="M1056 699h189v-699h-168v494l-371 -322h-87l-371 322v-494h-168v699h188l394 -342z" />
    <glyph glyph-name="N" unicode="N" horiz-adv-x="1133" 
d="M884 700h168v-700h-194l-610 494v-493h-168v697h183l621 -503v505z" />
    <glyph glyph-name="N" unicode="&#xd1;" horiz-adv-x="1133" 
d="M884 700h168v-700h-194l-610 494v-493h-168v697h183l621 -503v505z" />
    <glyph glyph-name="O" unicode="O" horiz-adv-x="1115" 
d="M557.5 700q142.5 0 261.5 -47t187.5 -128.5t68.5 -179t-68.5 -179t-187.5 -128.5t-261.5 -47t-261.5 47t-187.5 128.5t-68.5 179t68.5 179t187.5 128.5t261.5 47zM557 148q93 0 174 26.5t128.5 72.5t47.5 98.5t-47.5 98.5t-128.5 73t-174 27t-173.5 -27t-128 -73
t-47.5 -98.5t47.5 -98.5t128 -72.5t173.5 -26.5z" />
    <glyph glyph-name="O" unicode="&#xd8;" horiz-adv-x="1115" 
d="M557.5 700q142.5 0 261.5 -47t187.5 -128.5t68.5 -179t-68.5 -179t-187.5 -128.5t-261.5 -47t-261.5 47t-187.5 128.5t-68.5 179t68.5 179t187.5 128.5t261.5 47zM557 148q93 0 174 26.5t128.5 72.5t47.5 98.5t-47.5 98.5t-128.5 73t-174 27t-173.5 -27t-128 -73
t-47.5 -98.5t47.5 -98.5t128 -72.5t173.5 -26.5z" />
    <glyph glyph-name="O" unicode="&#xd6;" horiz-adv-x="1115" 
d="M557.5 700q142.5 0 261.5 -47t187.5 -128.5t68.5 -179t-68.5 -179t-187.5 -128.5t-261.5 -47t-261.5 47t-187.5 128.5t-68.5 179t68.5 179t187.5 128.5t261.5 47zM557 148q93 0 174 26.5t128.5 72.5t47.5 98.5t-47.5 98.5t-128.5 73t-174 27t-173.5 -27t-128 -73
t-47.5 -98.5t47.5 -98.5t128 -72.5t173.5 -26.5z" />
    <glyph glyph-name="O" unicode="&#xd5;" horiz-adv-x="1115" 
d="M557.5 700q142.5 0 261.5 -47t187.5 -128.5t68.5 -179t-68.5 -179t-187.5 -128.5t-261.5 -47t-261.5 47t-187.5 128.5t-68.5 179t68.5 179t187.5 128.5t261.5 47zM557 148q93 0 174 26.5t128.5 72.5t47.5 98.5t-47.5 98.5t-128.5 73t-174 27t-173.5 -27t-128 -73
t-47.5 -98.5t47.5 -98.5t128 -72.5t173.5 -26.5z" />
    <glyph glyph-name="O" unicode="&#xd4;" horiz-adv-x="1115" 
d="M557.5 700q142.5 0 261.5 -47t187.5 -128.5t68.5 -179t-68.5 -179t-187.5 -128.5t-261.5 -47t-261.5 47t-187.5 128.5t-68.5 179t68.5 179t187.5 128.5t261.5 47zM557 148q93 0 174 26.5t128.5 72.5t47.5 98.5t-47.5 98.5t-128.5 73t-174 27t-173.5 -27t-128 -73
t-47.5 -98.5t47.5 -98.5t128 -72.5t173.5 -26.5z" />
    <glyph glyph-name="O" unicode="&#xd3;" horiz-adv-x="1115" 
d="M557.5 700q142.5 0 261.5 -47t187.5 -128.5t68.5 -179t-68.5 -179t-187.5 -128.5t-261.5 -47t-261.5 47t-187.5 128.5t-68.5 179t68.5 179t187.5 128.5t261.5 47zM557 148q93 0 174 26.5t128.5 72.5t47.5 98.5t-47.5 98.5t-128.5 73t-174 27t-173.5 -27t-128 -73
t-47.5 -98.5t47.5 -98.5t128 -72.5t173.5 -26.5z" />
    <glyph glyph-name="O" unicode="&#xd2;" horiz-adv-x="1115" 
d="M557.5 700q142.5 0 261.5 -47t187.5 -128.5t68.5 -179t-68.5 -179t-187.5 -128.5t-261.5 -47t-261.5 47t-187.5 128.5t-68.5 179t68.5 179t187.5 128.5t261.5 47zM557 148q93 0 174 26.5t128.5 72.5t47.5 98.5t-47.5 98.5t-128.5 73t-174 27t-173.5 -27t-128 -73
t-47.5 -98.5t47.5 -98.5t128 -72.5t173.5 -26.5z" />
    <glyph glyph-name="P" unicode="P" horiz-adv-x="991" 
d="M559 700q108 0 198.5 -39t142.5 -107.5t52 -149.5q0 -82 -51.5 -149.5t-141 -107t-197.5 -40.5l-315 -2v-105h-168l1 700h479zM561 275q94 1 158.5 41t64.5 88t-65 88t-160 40h-312v-258z" />
    <glyph glyph-name="Q" unicode="Q" horiz-adv-x="1150" 
d="M1113 155l-36 -154l-228 47q-132 -63 -295 -63q-142 0 -260 47.5t-186 129.5t-68 180.5t68 181t186 129.5t260 47t260 -47t186 -129.5t68 -180.5q0 -89 -57 -166zM208 343q0 -53 47 -99t127 -73t172 -27t172 27t126.5 73t46.5 99t-46.5 98.5t-126.5 72.5t-172 27
t-172 -27t-127 -72.5t-47 -98.5z" />
    <glyph glyph-name="R" unicode="R" horiz-adv-x="1016" 
d="M997 0h-239l-171 163q-14 -1 -25 -1h-315v-162h-168v700h483q102 0 186.5 -35.5t133.5 -97.5t49 -136q0 -68 -41.5 -125.5t-113.5 -94.5zM247 538v-214h315q83 0 141.5 33.5t58.5 73.5t-58.5 73.5t-141.5 33.5h-315z" />
    <glyph glyph-name="S" unicode="S" horiz-adv-x="835" 
d="M650 380q145 -52 145 -171q0 -94 -108.5 -155t-274.5 -61q-93 0 -173.5 21.5t-133.5 60.5q-27 20 -45 43l138 90q4 -5 12 -11q26 -19 79 -33.5t123 -14.5q60 0 110.5 12t75 25.5t29.5 23.5q-4 30 -220 59q-155 20 -218 42q-144 52 -144 170v3q0 94 108.5 155t274.5 61
q100 0 184.5 -24.5t136.5 -68.5l-114 -115q-25 22 -80.5 37t-126.5 15q-60 0 -111 -12t-75 -25.5t-29 -23.5v-2q0 -30 217 -58q156 -20 220 -43z" />
    <glyph glyph-name="T" unicode="T" horiz-adv-x="892" 
d="M866 700v-168h-351v-532h-168v532h-322v168h841z" />
    <glyph glyph-name="U" unicode="U" horiz-adv-x="978" 
d="M747 700h168v-387q0 -88 -56.5 -161.5t-154.5 -116t-215.5 -42.5t-215.5 42.5t-154 116t-56 161.5v387h168v-387q0 -57 74.5 -104.5t183.5 -47.5t183.5 47.5t74.5 104.5v387z" />
    <glyph glyph-name="U" unicode="&#xdc;" horiz-adv-x="978" 
d="M747 700h168v-387q0 -88 -56.5 -161.5t-154.5 -116t-215.5 -42.5t-215.5 42.5t-154 116t-56 161.5v387h168v-387q0 -57 74.5 -104.5t183.5 -47.5t183.5 47.5t74.5 104.5v387z" />
    <glyph glyph-name="U" unicode="&#xdb;" horiz-adv-x="978" 
d="M747 700h168v-387q0 -88 -56.5 -161.5t-154.5 -116t-215.5 -42.5t-215.5 42.5t-154 116t-56 161.5v387h168v-387q0 -57 74.5 -104.5t183.5 -47.5t183.5 47.5t74.5 104.5v387z" />
    <glyph glyph-name="U" unicode="&#xda;" horiz-adv-x="978" 
d="M747 700h168v-387q0 -88 -56.5 -161.5t-154.5 -116t-215.5 -42.5t-215.5 42.5t-154 116t-56 161.5v387h168v-387q0 -57 74.5 -104.5t183.5 -47.5t183.5 47.5t74.5 104.5v387z" />
    <glyph glyph-name="U" unicode="&#xd9;" horiz-adv-x="978" 
d="M747 700h168v-387q0 -88 -56.5 -161.5t-154.5 -116t-215.5 -42.5t-215.5 42.5t-154 116t-56 161.5v387h168v-387q0 -57 74.5 -104.5t183.5 -47.5t183.5 47.5t74.5 104.5v387z" />
    <glyph glyph-name="V" unicode="V" horiz-adv-x="1257" 
d="M1043 704h208l-517 -704h-208l-518 700l8 4h201l413 -562z" />
    <glyph glyph-name="W" unicode="W" horiz-adv-x="1452" 
d="M1255 700h178l-252 -700h-178l-271 503l-271 -503h-178l-266 700h180l186 -490l265 490h168l263 -486z" />
    <glyph glyph-name="X" unicode="X" horiz-adv-x="1200" 
d="M1190 700l-456 -359l432 -341h-271l-296 234l-298 -234h-271l433 342l-453 358h271l318 -251l319 251h272z" />
    <glyph glyph-name="Y" unicode="Y" horiz-adv-x="1102" 
d="M1097 700l-465 -408v-292h-168v293l-460 407h254l290 -257l294 257h255z" />
    <glyph glyph-name="Y" unicode="&#x178;" horiz-adv-x="1102" 
d="M1097 700l-465 -408v-292h-168v293l-460 407h254l290 -257l294 257h255z" />
    <glyph glyph-name="Y" unicode="&#xdd;" horiz-adv-x="1102" 
d="M1097 700l-465 -408v-292h-168v293l-460 407h254l290 -257l294 257h255z" />
    <glyph glyph-name="Z" unicode="Z" horiz-adv-x="904" 
d="M850 156v-157h-800v170l544 374h-535v157h791v-176l-535 -368h535z" />
    <glyph glyph-name="bracketleft" unicode="[" horiz-adv-x="449" 
d="M383 633h-172v-508h172v-130h-303v769h303v-131z" />
    <glyph glyph-name="backslash" unicode="\" horiz-adv-x="557" 
d="M167 765l335 -765h-142l-336 765h143z" />
    <glyph glyph-name="bracketright" unicode="]" horiz-adv-x="449" 
d="M65 764h303v-769h-303v130h172v508h-172v131z" />
    <glyph glyph-name="underscore" unicode="_" horiz-adv-x="577" 
d="M557 -163h-537v168h537v-168z" />
    <glyph glyph-name="grave" unicode="`" horiz-adv-x="727" 
d="M544 385l129 -25q-10 -53 -44.5 -93.5t-84.5 -60.5q-36 -13 -74 -13q-69 0 -125 42l-43 33q-33 25 -72.5 10t-47.5 -56l-128 25q10 53 44.5 93.5t84.5 60t103 12t96 -40.5l42 -33q34 -25 73 -10t47 56z" />
    <glyph glyph-name="a" unicode="a" horiz-adv-x="1075" 
d="M611 704l451 -704h-199l-102 158h-448l-101 -158h-200l452 704h147zM421 326h232l-116 181z" />
    <glyph glyph-name="a" unicode="&#xe5;" horiz-adv-x="1075" 
d="M611 704l451 -704h-199l-102 158h-448l-101 -158h-200l452 704h147zM421 326h232l-116 181z" />
    <glyph glyph-name="a" unicode="&#xe4;" horiz-adv-x="1075" 
d="M611 704l451 -704h-199l-102 158h-448l-101 -158h-200l452 704h147zM421 326h232l-116 181z" />
    <glyph glyph-name="a" unicode="&#xe3;" horiz-adv-x="1075" 
d="M611 704l451 -704h-199l-102 158h-448l-101 -158h-200l452 704h147zM421 326h232l-116 181z" />
    <glyph glyph-name="a" unicode="&#xe2;" horiz-adv-x="1075" 
d="M611 704l451 -704h-199l-102 158h-448l-101 -158h-200l452 704h147zM421 326h232l-116 181z" />
    <glyph glyph-name="a" unicode="&#xe1;" horiz-adv-x="1075" 
d="M611 704l451 -704h-199l-102 158h-448l-101 -158h-200l452 704h147zM421 326h232l-116 181z" />
    <glyph glyph-name="a" unicode="&#xe0;" horiz-adv-x="1075" 
d="M611 704l451 -704h-199l-102 158h-448l-101 -158h-200l452 704h147zM421 326h232l-116 181z" />
    <glyph glyph-name="b" unicode="b" horiz-adv-x="937" 
d="M817 351q61 -58 61 -134q0 -93 -88.5 -155t-221.5 -62h-488v701h488q133 0 221.5 -62t88.5 -155q0 -76 -61 -133zM248 533v-98h320q41 0 74.5 10t49 20.5t18.5 18.5q-3 8 -18.5 18.5t-49 20.5t-74.5 10h-320zM568 168q41 0 74.5 10t49 21t18.5 18q-3 8 -18.5 19t-49 21
t-74.5 10h-320v-99h320z" />
    <glyph glyph-name="c" unicode="c" horiz-adv-x="970" 
d="M827 270l123 -115q-69 -73 -178.5 -114t-234.5 -41q-137 0 -251.5 47t-180 128.5t-65.5 179.5t65.5 179.5t180 128.5t251.5 47q181 0 318 -81l-85 -144q-98 57 -233 57q-139 0 -234 -58.5t-95 -128.5t95 -128.5t234 -58.5q90 0 168 27.5t122 74.5z" />
    <glyph glyph-name="c" unicode="&#xe7;" horiz-adv-x="970" 
d="M827 270l123 -115q-69 -73 -178.5 -114t-234.5 -41q-137 0 -251.5 47t-180 128.5t-65.5 179.5t65.5 179.5t180 128.5t251.5 47q181 0 318 -81l-85 -144q-98 57 -233 57q-139 0 -234 -58.5t-95 -128.5t95 -128.5t234 -58.5q90 0 168 27.5t122 74.5z" />
    <glyph glyph-name="d" unicode="d" 
d="M369 707q136 0 249.5 -46.5t178.5 -128t65 -179t-65 -179t-178.5 -128t-249.5 -46.5h-289v707h289zM369 168q137 0 231 58t94 127.5t-94 127.5t-231 58h-121v-371h121z" />
    <glyph glyph-name="e" unicode="e" horiz-adv-x="831" 
d="M767 535h-519v-99h474v-168h-474v-100h519v-168h-687v703h687v-168z" />
    <glyph glyph-name="e" unicode="&#xeb;" horiz-adv-x="831" 
d="M767 535h-519v-99h474v-168h-474v-100h519v-168h-687v703h687v-168z" />
    <glyph glyph-name="e" unicode="&#xea;" horiz-adv-x="831" 
d="M767 535h-519v-99h474v-168h-474v-100h519v-168h-687v703h687v-168z" />
    <glyph glyph-name="e" unicode="&#xe9;" horiz-adv-x="831" 
d="M767 535h-519v-99h474v-168h-474v-100h519v-168h-687v703h687v-168z" />
    <glyph glyph-name="e" unicode="&#xe8;" horiz-adv-x="831" 
d="M767 535h-519v-99h474v-168h-474v-100h519v-168h-687v703h687v-168z" />
    <glyph glyph-name="f" unicode="f" horiz-adv-x="809" 
d="M767 536h-519v-100h474v-168h-474v-268h-168v704h687v-168z" />
    <glyph glyph-name="g" unicode="g" horiz-adv-x="986" 
d="M447 432h493v-146q0 -70 -43 -131t-119 -98l-2 -1q-118 -56 -259 -56q-132 0 -241 47t-172 128.5t-63 179t63 179t172 128.5t241 47q98 0 188.5 -28.5t156.5 -81.5l-104 -130q-45 35 -108 54t-133 19q-82 0 -153 -25.5t-113 -68.5t-42 -93t42 -93.5t113 -69t153 -25.5
q103 0 186 40h1q49 24 63 59h-320v166z" />
    <glyph glyph-name="h" unicode="h" horiz-adv-x="1073" 
d="M825 700h168v-700h-168v265h-577v-265h-168v700h168v-267h577v267z" />
    <glyph glyph-name="i" unicode="i" horiz-adv-x="329" 
d="M248 0h-168v700h168v-700z" />
    <glyph glyph-name="i" unicode="&#xef;" horiz-adv-x="329" 
d="M248 0h-168v700h168v-700z" />
    <glyph glyph-name="i" unicode="&#xee;" horiz-adv-x="329" 
d="M248 0h-168v700h168v-700z" />
    <glyph glyph-name="i" unicode="&#xed;" horiz-adv-x="329" 
d="M248 0h-168v700h168v-700z" />
    <glyph glyph-name="i" unicode="&#xec;" horiz-adv-x="329" 
d="M248 0h-168v700h168v-700z" />
    <glyph glyph-name="j" unicode="j" horiz-adv-x="871" 
d="M639 709h168v-390q0 -88 -56 -161.5t-154 -115.5t-216 -42q-113 0 -209.5 40.5t-154.5 111.5l131 106q33 -41 96.5 -65.5t136.5 -24.5q109 0 183.5 47t74.5 104v390z" />
    <glyph glyph-name="k" unicode="k" horiz-adv-x="996" 
d="M989 700l-475 -315l438 -385h-255l-328 288l-121 -80v-207h-168v699h168v-290l437 290h304z" />
    <glyph glyph-name="l" unicode="l" horiz-adv-x="874" 
d="M248 168h600v-168h-768v700h168v-532z" />
    <glyph glyph-name="m" unicode="m" horiz-adv-x="1325" 
d="M1056 699h189v-699h-168v494l-371 -322h-87l-371 322v-494h-168v699h188l394 -342z" />
    <glyph glyph-name="n" unicode="n" horiz-adv-x="1132" 
d="M884 700h168v-700h-194l-610 494v-493h-168v697h183l621 -503v505z" />
    <glyph glyph-name="n" unicode="&#xf1;" horiz-adv-x="1132" 
d="M884 700h168v-700h-194l-610 494v-493h-168v697h183l621 -503v505z" />
    <glyph glyph-name="o" unicode="o" horiz-adv-x="1115" 
d="M557.5 708q142.5 0 261.5 -46.5t187.5 -128t68.5 -179.5t-68.5 -179t-187.5 -128t-261.5 -47t-261.5 47t-187.5 128t-68.5 179t68.5 179.5t187.5 128t261.5 46.5zM557 156q93 0 174 27t128.5 72.5t47.5 98.5t-47.5 99t-128.5 72.5t-174 26.5t-173.5 -26.5t-128 -72.5
t-47.5 -99t47.5 -98.5t128 -72.5t173.5 -27z" />
    <glyph glyph-name="o" unicode="&#xf8;" horiz-adv-x="1115" 
d="M557.5 708q142.5 0 261.5 -46.5t187.5 -128t68.5 -179.5t-68.5 -179t-187.5 -128t-261.5 -47t-261.5 47t-187.5 128t-68.5 179t68.5 179.5t187.5 128t261.5 46.5zM557 156q93 0 174 27t128.5 72.5t47.5 98.5t-47.5 99t-128.5 72.5t-174 26.5t-173.5 -26.5t-128 -72.5
t-47.5 -99t47.5 -98.5t128 -72.5t173.5 -27z" />
    <glyph glyph-name="o" unicode="&#xf6;" horiz-adv-x="1115" 
d="M557.5 708q142.5 0 261.5 -46.5t187.5 -128t68.5 -179.5t-68.5 -179t-187.5 -128t-261.5 -47t-261.5 47t-187.5 128t-68.5 179t68.5 179.5t187.5 128t261.5 46.5zM557 156q93 0 174 27t128.5 72.5t47.5 98.5t-47.5 99t-128.5 72.5t-174 26.5t-173.5 -26.5t-128 -72.5
t-47.5 -99t47.5 -98.5t128 -72.5t173.5 -27z" />
    <glyph glyph-name="o" unicode="&#xf5;" horiz-adv-x="1115" 
d="M557.5 708q142.5 0 261.5 -46.5t187.5 -128t68.5 -179.5t-68.5 -179t-187.5 -128t-261.5 -47t-261.5 47t-187.5 128t-68.5 179t68.5 179.5t187.5 128t261.5 46.5zM557 156q93 0 174 27t128.5 72.5t47.5 98.5t-47.5 99t-128.5 72.5t-174 26.5t-173.5 -26.5t-128 -72.5
t-47.5 -99t47.5 -98.5t128 -72.5t173.5 -27z" />
    <glyph glyph-name="o" unicode="&#xf4;" horiz-adv-x="1115" 
d="M557.5 708q142.5 0 261.5 -46.5t187.5 -128t68.5 -179.5t-68.5 -179t-187.5 -128t-261.5 -47t-261.5 47t-187.5 128t-68.5 179t68.5 179.5t187.5 128t261.5 46.5zM557 156q93 0 174 27t128.5 72.5t47.5 98.5t-47.5 99t-128.5 72.5t-174 26.5t-173.5 -26.5t-128 -72.5
t-47.5 -99t47.5 -98.5t128 -72.5t173.5 -27z" />
    <glyph glyph-name="o" unicode="&#xf3;" horiz-adv-x="1115" 
d="M557.5 708q142.5 0 261.5 -46.5t187.5 -128t68.5 -179.5t-68.5 -179t-187.5 -128t-261.5 -47t-261.5 47t-187.5 128t-68.5 179t68.5 179.5t187.5 128t261.5 46.5zM557 156q93 0 174 27t128.5 72.5t47.5 98.5t-47.5 99t-128.5 72.5t-174 26.5t-173.5 -26.5t-128 -72.5
t-47.5 -99t47.5 -98.5t128 -72.5t173.5 -27z" />
    <glyph glyph-name="o" unicode="&#xf2;" horiz-adv-x="1115" 
d="M557.5 708q142.5 0 261.5 -46.5t187.5 -128t68.5 -179.5t-68.5 -179t-187.5 -128t-261.5 -47t-261.5 47t-187.5 128t-68.5 179t68.5 179.5t187.5 128t261.5 46.5zM557 156q93 0 174 27t128.5 72.5t47.5 98.5t-47.5 99t-128.5 72.5t-174 26.5t-173.5 -26.5t-128 -72.5
t-47.5 -99t47.5 -98.5t128 -72.5t173.5 -27z" />
    <glyph glyph-name="p" unicode="p" horiz-adv-x="991" 
d="M559 700q108 0 198.5 -39t142.5 -107.5t52 -149.5q0 -82 -51.5 -149.5t-141 -107t-197.5 -40.5l-315 -2v-105h-168l1 700h479zM561 275q94 1 158.5 41t64.5 88t-65 88t-160 40h-312v-258z" />
    <glyph glyph-name="q" unicode="q" horiz-adv-x="1151" 
d="M1113 170l-36 -155l-228 48q-132 -63 -295 -63q-142 0 -260 47t-186 129.5t-68 181t68 180.5t186 129.5t260 47.5t260 -47.5t186 -129.5t68 -181q0 -88 -57 -166zM208 357q0 -53 47 -98.5t127 -73t172 -27.5t172 27.5t126.5 73t46.5 98.5t-46.5 99t-126.5 73t-172 27
t-172 -27t-127 -73t-47 -99z" />
    <glyph glyph-name="r" unicode="r" horiz-adv-x="1019" 
d="M998 0h-239l-171 162h-25h-315v-162h-168v700h483q102 0 186.5 -35.5t133.5 -97.5t49 -136q0 -68 -41.5 -126t-113.5 -95zM248 538v-214h315q83 0 141.5 33.5t58.5 73.5t-58.5 73.5t-141.5 33.5h-315z" />
    <glyph glyph-name="s" unicode="s" horiz-adv-x="835" 
d="M650 387q145 -52 145 -171q0 -94 -108.5 -155t-274.5 -61q-93 0 -173.5 21.5t-133.5 60.5q-27 20 -45 43l138 90q4 -5 12 -11q26 -20 79 -34t123 -14q60 0 110.5 12t75 25t29.5 24q-4 30 -220 59q-155 20 -218 42q-144 51 -144 170v3q0 94 108.5 155t274.5 61
q100 0 184.5 -24.5t136.5 -68.5l-114 -115q-25 22 -80.5 37t-126.5 15q-60 0 -111 -12t-75 -25.5t-29 -23.5v-2q0 -30 217 -58q156 -21 220 -43z" />
    <glyph glyph-name="t" unicode="t" horiz-adv-x="892" 
d="M866 700v-168h-351v-532h-168v532h-322v168h841z" />
    <glyph glyph-name="u" unicode="u" horiz-adv-x="978" 
d="M747 707h168v-387q0 -88 -56.5 -161.5t-154.5 -116t-215.5 -42.5t-215.5 42.5t-154 116t-56 161.5v387h168v-387q0 -57 74.5 -104.5t183.5 -47.5t183.5 47.5t74.5 104.5v387z" />
    <glyph glyph-name="u" unicode="&#xfc;" horiz-adv-x="978" 
d="M747 707h168v-387q0 -88 -56.5 -161.5t-154.5 -116t-215.5 -42.5t-215.5 42.5t-154 116t-56 161.5v387h168v-387q0 -57 74.5 -104.5t183.5 -47.5t183.5 47.5t74.5 104.5v387z" />
    <glyph glyph-name="u" unicode="&#xfb;" horiz-adv-x="978" 
d="M747 707h168v-387q0 -88 -56.5 -161.5t-154.5 -116t-215.5 -42.5t-215.5 42.5t-154 116t-56 161.5v387h168v-387q0 -57 74.5 -104.5t183.5 -47.5t183.5 47.5t74.5 104.5v387z" />
    <glyph glyph-name="u" unicode="&#xfa;" horiz-adv-x="978" 
d="M747 707h168v-387q0 -88 -56.5 -161.5t-154.5 -116t-215.5 -42.5t-215.5 42.5t-154 116t-56 161.5v387h168v-387q0 -57 74.5 -104.5t183.5 -47.5t183.5 47.5t74.5 104.5v387z" />
    <glyph glyph-name="u" unicode="&#xf9;" horiz-adv-x="978" 
d="M747 707h168v-387q0 -88 -56.5 -161.5t-154.5 -116t-215.5 -42.5t-215.5 42.5t-154 116t-56 161.5v387h168v-387q0 -57 74.5 -104.5t183.5 -47.5t183.5 47.5t74.5 104.5v387z" />
    <glyph glyph-name="v" unicode="v" horiz-adv-x="1257" 
d="M1043 704h208l-517 -704h-208l-518 700l8 4h201l413 -562z" />
    <glyph glyph-name="w" unicode="w" horiz-adv-x="1452" 
d="M1255 700h178l-252 -700h-178l-271 503l-271 -503h-178l-266 700h180l186 -490l265 490h168l263 -487z" />
    <glyph glyph-name="x" unicode="x" horiz-adv-x="1201" 
d="M1191 700l-456 -359l432 -341h-271l-296 234l-298 -234h-271l433 341l-453 359h271l318 -252l319 252h272z" />
    <glyph glyph-name="y" unicode="y" horiz-adv-x="1102" 
d="M1097 700l-465 -408v-292h-168v292l-460 408h254l290 -258l294 258h255z" />
    <glyph glyph-name="y" unicode="&#xff;" horiz-adv-x="1102" 
d="M1097 700l-465 -408v-292h-168v292l-460 408h254l290 -258l294 258h255z" />
    <glyph glyph-name="y" unicode="&#xfd;" horiz-adv-x="1102" 
d="M1097 700l-465 -408v-292h-168v292l-460 408h254l290 -258l294 258h255z" />
    <glyph glyph-name="z" unicode="z" horiz-adv-x="904" 
d="M850 12v-12h-800v170l544 374h-535v157h791v-176l-535 -368h535v-145z" />
    <glyph glyph-name="asciitilde" unicode="~" horiz-adv-x="196" 
d="M49 100h97v-97l-26 -55h-30l15 55h-56v97z" />
    <glyph glyph-name="nonbreakingspace" unicode="&#xa0;" horiz-adv-x="503" 
 />
    <glyph glyph-name="cent" unicode="&#xa2;" horiz-adv-x="756" 
d="M584 166l114 -64q-47 -83 -123.5 -129.5t-165.5 -46.5l-4 -55l-130 8l4 75q-93 41 -151 133t-58 204q0 125 70.5 222.5t179.5 129.5l3 52l130 -7l-2 -35q106 -14 185 -92l-91 -93q-44 43 -101 54l-28 -465q52 2 96 31t72 78zM288 100l23 398q-50 -30 -80 -85.5
t-30 -121.5q0 -58 23.5 -108t63.5 -83z" />
    <glyph glyph-name="sterling" unicode="&#xa3;" horiz-adv-x="854" 
d="M650 117l32 20l65 -113l-50 -27l-11 -5q-8 -4 -11 -5q-43 -19 -94 -23q-49 -3 -93 9q-24 6 -45 15l-16 7q-5 3 -14 6q-27 9 -58 9h-15l-8 -1l-9 -1l-38 -5l-125 -14l-65 66l4 4l72 65l9 8q1 0 2.5 2t2.5 3q6 7 9 13q8 14 13 33q9 35 6 84q0 11 -2 25h-145v131h133v37v6v7
q0 5 1 16q2 17 7 31q9 30 27 56q31 46 86 78q47 27 103 38q54 11 109 6q57 -5 107 -27q57 -23 96 -64q47 -48 58 -110l-104 -17q-4 30 -29 56q-24 26 -61 42q-73 33 -157 18q-42 -8 -75 -26q-36 -20 -56 -48q-9 -13 -14 -29q-3 -7 -4 -15q-1 -7 -1 -8v-4v-6v-37h205v-131
h-195q1 -13 1 -22q2 -61 -11 -109q-8 -31 -23 -56q-1 -2 -6 -8l7 1l37 7l10 2l11 2q12 2 23 3q47 3 92 -8q13 -3 22 -7q4 -1 12 -4l2 -1l2 -1l3 -1q13 -4 28 -7q27 -4 58 0q29 5 52 17q1 0 6 3l6 4z" />
    <glyph glyph-name="yen" unicode="&#xa5;" 
d="M852 700l-176 -191h70v-131h-190l-34 -38v-9h224v-131h-224v-200h-131v200h-256v131h256v9l-35 38h-221v131h99l-178 191h179l221 -238l218 238h178z" />
    <glyph glyph-name="copyright" unicode="&#xa9;" horiz-adv-x="1291" 
d="M663 316q58 0 102 15t65 35l88 -97q-43 -39 -110.5 -61.5t-144.5 -22.5q-134 0 -224 59t-90 147t90 147t224 59q111 0 195 -43l-59 -117q-57 29 -136 29q-78 0 -130.5 -25.5t-52.5 -49t52.5 -49.5t130.5 -26zM645.5 786q159.5 0 292 -52t209 -143t76.5 -200t-76.5 -199.5
t-209 -142.5t-292 -52t-292 52t-209 142.5t-76.5 199.5t76.5 200t209 143t292 52zM645 127q119 0 222.5 36t164 97t60.5 131t-60.5 131t-164 97t-222.5 36t-222 -36t-163.5 -97t-60.5 -131t60.5 -131t163.5 -97t222 -36z" />
    <glyph glyph-name="softhyphen" unicode="&#xad;" horiz-adv-x="0" 
 />
    <glyph glyph-name="registered" unicode="&#xae;" horiz-adv-x="1291" 
d="M645.5 786q159.5 0 292 -52t209 -143t76.5 -200t-76.5 -199.5t-209 -142.5t-292 -52t-292 52t-209 142.5t-76.5 199.5t76.5 200t209 143t292 52zM645 127q119 0 222.5 36t164 97t60.5 131t-60.5 131t-164 97t-222.5 36t-222 -36t-163.5 -97t-60.5 -131t60.5 -131
t163.5 -97t222 -36zM926 433q0 -55 -50 -93l115 -82h-226l-48 34h-12h-153v-34h-130v317h283q96 0 158.5 -40t62.5 -102zM705 422q40 0 70 11q-30 11 -70 11h-153v-22h153z" />
    <glyph glyph-name="degree" unicode="&#xb0;" horiz-adv-x="467" 
d="M233 702q73 0 123 -41.5t50 -101.5t-50 -101.5t-123 -41.5t-123 41.5t-50 101.5t50 101.5t123 41.5zM233.5 547q26.5 0 40.5 12q-14 12 -40.5 12t-40.5 -12q14 -12 40.5 -12z" />
    <glyph glyph-name="paragraph" unicode="&#xb6;" horiz-adv-x="659" 
d="M596 397l-158 -120l158 -119l-79 -104l-188 141l-187 -141l-79 104l158 119l-158 120l79 104l187 -142l188 142z" />
    <glyph glyph-name="multiply" unicode="&#xd7;" horiz-adv-x="615" 
d="M559 238h-504v131h504v-131zM356 72h-98v97h98v-97zM356 438h-98v97h98v-97z" />
    <glyph glyph-name="divide" unicode="&#xf7;" horiz-adv-x="948" 
d="M883 479h-172v-334q0 -16 19 -32q21 -17 54 -23.5t66 -0.5l25 -125q-28 -5 -57 -5q-101 0 -171 56q-67 53 -67 130v334h-264v-482h-131v482h-127v128h825v-128z" />
    <glyph glyph-name="pi" unicode="&#x3c0;" horiz-adv-x="710" 
d="M613 765h141l-310 -762h-137l-94 438l-148 -47l-40 124l285 92l83 -386z" />
    <glyph glyph-name="bullet" unicode="&#x2022;" horiz-adv-x="291" 
d="M211 0h-131v761h131v-761z" />
    <glyph glyph-name="Euro" unicode="&#x20ac;" horiz-adv-x="1015" 
d="M850 229l106 -75q-55 -78 -144 -121.5t-193 -43.5q-113 0 -208 52.5t-146 139.5h-202l30 131h130q-1 10 -2 21h-123l30 131h116q43 104 145.5 169t229.5 65q150 0 263 -87l-81 -103q-77 60 -182 60q-69 0 -129 -28.5t-96 -75.5h199l-30 -131h-211q0 -11 2 -21h204
l-30 -131h-93q78 -62 184 -62q71 0 133 29.5t98 80.5z" />
    <glyph glyph-name="trademark" unicode="&#x2122;" horiz-adv-x="613" 
d="M461 765h106v-138h-87v44l-68 -48l-60 45v-41h-87v138h104l45 -34zM43 678v87h215v-87h-68v-52h-87v52h-60z" />
    <glyph glyph-name="Delta" unicode="&#x2206;" horiz-adv-x="884" 
d="M464 700l371 -707h-787l372 707h44zM442 461l-178 -338h355z" />
    <glyph glyph-name="radical" unicode="&#x221a;" horiz-adv-x="278" 
d="M139 219q-35 0 -60 24.5t-25 60t25 60t60 24.5t60 -24.5t25 -60t-25 -60t-60 -24.5z" />
    </font>
</defs>
</svg>
